# xmcd
#
# Track frame offsets:
#	150
#	11569
#	23802
#	34958
#	45330
#	58375
#	68857
#	79078
#	91045
#	103312
#	114183
#	126030
#	140306
#	150819
#	165498
#	179330
#	192454
#	205265
#	216352
#	229459
#	239126
#	252276
#	264209
#	276248
#	287032
#	300605
#
# Disc length: 4135 seconds
# Revision: 0
# Processed by: cddbd v1.5.2PL0 Copyright (c) Steve Scherf et al.
# Submitted via: dBpowerAMP V12.0
#
DISCID=7110251a
DTITLE=T-Bone Walker - The Essence of T-Bone Walker
DYEAR=2009
DGENRE=Blues
TTITLE0=The Hustle Is On
TTITLE1=Glamour Girl
TTITLE2=Strollin' With Bones
TTITLE3=The Sun Went Down
TTITLE4=You Don't Love Me
TTITLE5=Travelin' Blues
TTITLE6=I Walked Away
TTITLE7=Alimoney Blues
TTITLE8=Life Is Too Short
TTITLE9=Welcome Blues (Say Pretty Baby)
TTITLE10=Tell Me What's The Reason
TTITLE11=Cold, Cold Feeling
TTITLE12=News For You Baby
TTITLE13=I Got The Blues Again
TTITLE14=Street Walking Woman
TTITLE15=I Got The Blues
TTITLE16=Blue Mood
TTITLE17=Everytime
TTITLE18=Lollie Lou
TTITLE19=Party Girl
TTITLE20=High Society
TTITLE21=Got No Use For You
TTITLE22=Railroad Station Blues
TTITLE23=Vida Lee
TTITLE24=Doin' Time
TTITLE25=Hard Way
EXTD=
EXTT0=
EXTT1=
EXTT2=
EXTT3=
EXTT4=
EXTT5=
EXTT6=
EXTT7=
EXTT8=
EXTT9=
EXTT10=
EXTT11=
EXTT12=
EXTT13=
EXTT14=
EXTT15=
EXTT16=
EXTT17=
EXTT18=
EXTT19=
EXTT20=
EXTT21=
EXTT22=
EXTT23=
EXTT24=
EXTT25=
PLAYORDER=
